<svg width="16" height="16" viewBox="0 0 16 16" fill="none" xmlns="http://www.w3.org/2000/svg">
<path d="M1.75415 5.8046C1.75415 8.31077 3.78403 10.3407 6.2902 10.3407C8.79637 10.3407 10.8263 8.31077 10.8263 5.8046C10.8263 3.29843 8.79637 1.26855 6.2902 1.26855C4.7744 1.26855 3.42871 2.01322 2.60466 3.15857" stroke="white" stroke-width="1.51202" stroke-miterlimit="10" stroke-linejoin="round"/>
<path d="M13.5365 14.0186L14.5042 13.0509C14.6516 12.9035 14.6516 12.6654 14.5042 12.518L11.6842 9.69804C11.5368 9.55062 11.2987 9.55062 11.1513 9.69804L10.1836 10.6657C10.0361 10.8132 10.0361 11.0513 10.1836 11.1987L13.0035 14.0186C13.1509 14.1661 13.389 14.1661 13.5365 14.0186Z" stroke="white" stroke-width="0.756009" stroke-miterlimit="10" stroke-linejoin="round"/>
<path d="M10.675 10.1705L9.27637 8.76815" stroke="white" stroke-width="0.756009" stroke-miterlimit="10" stroke-linejoin="round"/>
</svg>
