<svg width="137" height="48" viewBox="0 0 137 48" fill="none" xmlns="http://www.w3.org/2000/svg">
    <path d="M38.4212 25.0409C38.4212 22.1819 40.7854 20.8074 40.8954 20.6974C39.5758 18.7181 37.4866 18.4982 36.7168 18.4432C34.9574 18.2782 33.253 19.4878 32.3733 19.4878C31.4386 19.4878 30.1191 18.4432 28.6346 18.4982C26.7102 18.5532 24.9508 19.6528 23.9612 21.3572C21.9269 24.821 23.4663 29.9893 25.3907 32.7933C26.3803 34.1678 27.48 35.7073 28.9645 35.6523C30.394 35.5974 30.9438 34.7176 32.6482 34.7176C34.3526 34.7176 34.9024 35.6523 36.3869 35.5973C37.9264 35.5973 38.9161 34.2228 39.8508 32.7933C40.9504 31.1988 41.3902 29.6594 41.4452 29.5494C41.3902 29.6044 38.4212 28.4498 38.4212 25.0409Z" fill="#3D3A34"/>
    <path d="M35.5614 16.6288C36.3311 15.6391 36.8809 14.3196 36.716 13C35.6163 13.055 34.1868 13.7697 33.3621 14.7044C32.6474 15.5291 31.9876 16.9037 32.1525 18.2232C33.4721 18.3332 34.7366 17.5634 35.5614 16.6288Z" fill="#3D3A34"/>
    <path d="M52 12.3672H53.7773C54.5872 12.3672 55.1745 12.4831 55.5391 12.7148C55.9062 12.944 56.0898 13.3099 56.0898 13.8125C56.0898 14.1536 56.0091 14.4336 55.8477 14.6523C55.6888 14.8711 55.4766 15.0026 55.2109 15.0469V15.0859C55.5729 15.1667 55.8333 15.3177 55.9922 15.5391C56.1536 15.7604 56.2344 16.0547 56.2344 16.4219C56.2344 16.9427 56.0456 17.349 55.668 17.6406C55.293 17.9323 54.7826 18.0781 54.1367 18.0781H52V12.3672ZM53.2109 14.6289H53.9141C54.2422 14.6289 54.4792 14.5781 54.625 14.4766C54.7734 14.375 54.8477 14.207 54.8477 13.9727C54.8477 13.7539 54.7669 13.5977 54.6055 13.5039C54.4466 13.4076 54.194 13.3594 53.8477 13.3594H53.2109V14.6289ZM53.2109 15.5898V17.0781H54C54.3333 17.0781 54.5794 17.0143 54.7383 16.8867C54.8971 16.7591 54.9766 16.5638 54.9766 16.3008C54.9766 15.8268 54.638 15.5898 53.9609 15.5898H53.2109Z" fill="#3D3A34"/>
    <path d="M60.0547 18.0781L59.8242 17.4844H59.793C59.5924 17.737 59.3854 17.9128 59.1719 18.0117C58.9609 18.1081 58.6849 18.1562 58.3437 18.1562C57.9245 18.1562 57.5937 18.0365 57.3516 17.7969C57.112 17.5573 56.9922 17.2161 56.9922 16.7734C56.9922 16.3099 57.1536 15.9688 57.4766 15.75C57.8021 15.5286 58.2917 15.4062 58.9453 15.3828L59.7031 15.3594V15.168C59.7031 14.7253 59.4766 14.5039 59.0234 14.5039C58.6745 14.5039 58.2643 14.6094 57.793 14.8203L57.3984 14.0156C57.901 13.7526 58.4583 13.6211 59.0703 13.6211C59.6562 13.6211 60.1055 13.7487 60.418 14.0039C60.7305 14.2591 60.8867 14.6471 60.8867 15.168V18.0781H60.0547ZM59.7031 16.0547L59.2422 16.0703C58.8958 16.0807 58.638 16.1432 58.4687 16.2578C58.2995 16.3724 58.2148 16.5469 58.2148 16.7812C58.2148 17.1172 58.4076 17.2852 58.793 17.2852C59.069 17.2852 59.2891 17.2057 59.4531 17.0469C59.6198 16.888 59.7031 16.6771 59.7031 16.4141V16.0547Z" fill="#3D3A34"/>
    <path d="M62.0664 12.582C62.0664 12.194 62.2825 12 62.7148 12C63.1471 12 63.3633 12.194 63.3633 12.582C63.3633 12.7669 63.3086 12.9115 63.1992 13.0156C63.0924 13.1172 62.931 13.168 62.7148 13.168C62.2825 13.168 62.0664 12.9727 62.0664 12.582ZM63.3086 18.0781H62.1172V13.7109H63.3086V18.0781Z" fill="#3D3A34"/>
    <path d="M65.457 15.8477L64.0508 13.7109H65.4023L66.25 15.1016L67.1055 13.7109H68.457L67.0352 15.8477L68.5234 18.0781H67.168L66.25 16.582L65.3281 18.0781H63.9766L65.457 15.8477Z" fill="#3D3A34"/>
    <path d="M70.9961 14.4766C70.7435 14.4766 70.5456 14.5573 70.4023 14.7188C70.2591 14.8776 70.1771 15.1042 70.1562 15.3984H71.8281C71.8229 15.1042 71.7461 14.8776 71.5977 14.7188C71.4492 14.5573 71.2487 14.4766 70.9961 14.4766ZM71.1641 18.1562C70.4609 18.1562 69.9115 17.9622 69.5156 17.5742C69.1198 17.1862 68.9219 16.6367 68.9219 15.9258C68.9219 15.194 69.1042 14.6289 69.4687 14.2305C69.8359 13.8294 70.3424 13.6289 70.9883 13.6289C71.6055 13.6289 72.0859 13.8047 72.4297 14.1562C72.7734 14.5078 72.9453 14.9935 72.9453 15.6133V16.1914H70.1289C70.1419 16.5299 70.2422 16.7943 70.4297 16.9844C70.6172 17.1745 70.8802 17.2695 71.2187 17.2695C71.4818 17.2695 71.7305 17.2422 71.9648 17.1875C72.1992 17.1328 72.444 17.0456 72.6992 16.9258V17.8477C72.4909 17.9518 72.2682 18.0286 72.0312 18.0781C71.7943 18.1302 71.5052 18.1562 71.1641 18.1562Z" fill="#3D3A34"/>
    <path d="M78.7656 18.0781L78.5352 17.4844H78.5039C78.3034 17.737 78.0963 17.9128 77.8828 18.0117C77.6719 18.1081 77.3958 18.1562 77.0547 18.1562C76.6354 18.1562 76.3047 18.0365 76.0625 17.7969C75.8229 17.5573 75.7031 17.2161 75.7031 16.7734C75.7031 16.3099 75.8646 15.9688 76.1875 15.75C76.513 15.5286 77.0026 15.4062 77.6562 15.3828L78.4141 15.3594V15.168C78.4141 14.7253 78.1875 14.5039 77.7344 14.5039C77.3854 14.5039 76.9753 14.6094 76.5039 14.8203L76.1094 14.0156C76.612 13.7526 77.1693 13.6211 77.7812 13.6211C78.3672 13.6211 78.8164 13.7487 79.1289 14.0039C79.4414 14.2591 79.5977 14.6471 79.5977 15.168V18.0781H78.7656ZM78.4141 16.0547L77.9531 16.0703C77.6068 16.0807 77.349 16.1432 77.1797 16.2578C77.0104 16.3724 76.9258 16.5469 76.9258 16.7812C76.9258 17.1172 77.1185 17.2852 77.5039 17.2852C77.7799 17.2852 78 17.2057 78.1641 17.0469C78.3307 16.888 78.4141 16.6771 78.4141 16.4141V16.0547Z" fill="#3D3A34"/>
    <path d="M84.6289 13.7109V14.3164L83.9453 14.4922C84.0703 14.6875 84.1328 14.9062 84.1328 15.1484C84.1328 15.6172 83.9687 15.9831 83.6406 16.2461C83.3151 16.5065 82.862 16.6367 82.2812 16.6367L82.0664 16.625L81.8906 16.6055C81.7682 16.6992 81.707 16.8034 81.707 16.918C81.707 17.0898 81.9258 17.1758 82.3633 17.1758H83.1055C83.5846 17.1758 83.9492 17.2786 84.1992 17.4844C84.4518 17.6901 84.5781 17.9922 84.5781 18.3906C84.5781 18.901 84.3646 19.2969 83.9375 19.5781C83.513 19.8594 82.9023 20 82.1055 20C81.4961 20 81.0299 19.8932 80.707 19.6797C80.3867 19.4688 80.2266 19.1719 80.2266 18.7891C80.2266 18.526 80.3086 18.306 80.4726 18.1289C80.6367 17.9518 80.8776 17.8255 81.1953 17.75C81.0729 17.6979 80.9661 17.6133 80.875 17.4961C80.7838 17.3763 80.7383 17.25 80.7383 17.1172C80.7383 16.9505 80.7865 16.8125 80.8828 16.7031C80.9792 16.5911 81.1185 16.4818 81.3008 16.375C81.0716 16.276 80.8893 16.1172 80.7539 15.8984C80.6211 15.6797 80.5547 15.4219 80.5547 15.125C80.5547 14.6484 80.7096 14.2799 81.0195 14.0195C81.3294 13.7591 81.7721 13.6289 82.3476 13.6289C82.47 13.6289 82.6146 13.6406 82.7812 13.6641C82.9505 13.6849 83.0586 13.7005 83.1055 13.7109H84.6289ZM81.2578 18.6953C81.2578 18.8594 81.3359 18.9883 81.4922 19.082C81.651 19.1758 81.8724 19.2227 82.1562 19.2227C82.5833 19.2227 82.918 19.1641 83.1601 19.0469C83.4023 18.9297 83.5234 18.7695 83.5234 18.5664C83.5234 18.4023 83.4518 18.2891 83.3086 18.2266C83.1654 18.1641 82.944 18.1328 82.6445 18.1328H82.0273C81.8086 18.1328 81.625 18.1836 81.4766 18.2852C81.3307 18.3893 81.2578 18.526 81.2578 18.6953ZM81.6914 15.1406C81.6914 15.3776 81.7448 15.5651 81.8516 15.7031C81.9609 15.8411 82.1263 15.9102 82.3476 15.9102C82.5716 15.9102 82.7357 15.8411 82.8398 15.7031C82.944 15.5651 82.9961 15.3776 82.9961 15.1406C82.9961 14.6146 82.7799 14.3516 82.3476 14.3516C81.9101 14.3516 81.6914 14.6146 81.6914 15.1406Z" fill="#3D3A34"/>
    <path d="M86.3008 15.8867C86.3008 16.319 86.3711 16.6458 86.5117 16.8672C86.6549 17.0885 86.8867 17.1992 87.207 17.1992C87.5247 17.1992 87.7526 17.0898 87.8906 16.8711C88.0312 16.6497 88.1016 16.3216 88.1016 15.8867C88.1016 15.4544 88.0312 15.1302 87.8906 14.9141C87.75 14.6979 87.5195 14.5898 87.1992 14.5898C86.8815 14.5898 86.6523 14.6979 86.5117 14.9141C86.3711 15.1276 86.3008 15.4518 86.3008 15.8867ZM89.3203 15.8867C89.3203 16.5977 89.1328 17.1536 88.7578 17.5547C88.3828 17.9557 87.8607 18.1562 87.1914 18.1562C86.7721 18.1562 86.4023 18.0651 86.082 17.8828C85.7617 17.6979 85.5156 17.4336 85.3437 17.0898C85.1719 16.7461 85.0859 16.3451 85.0859 15.8867C85.0859 15.1732 85.2721 14.6185 85.6445 14.2227C86.0169 13.8268 86.5404 13.6289 87.2148 13.6289C87.6341 13.6289 88.0039 13.7201 88.3242 13.9023C88.6445 14.0846 88.8906 14.3464 89.0625 14.6875C89.2344 15.0286 89.3203 15.4284 89.3203 15.8867Z" fill="#3D3A34"/>
    <path d="M92.7422 13.6289C92.9036 13.6289 93.0378 13.6406 93.1445 13.6641L93.0547 14.7812C92.9583 14.7552 92.8411 14.7422 92.7031 14.7422C92.3229 14.7422 92.026 14.8398 91.8125 15.0352C91.6016 15.2305 91.4961 15.5039 91.4961 15.8555V18.0781H90.3047V13.7109H91.207L91.3828 14.4453H91.4414C91.5768 14.2005 91.7591 14.0039 91.9883 13.8555C92.22 13.7044 92.4713 13.6289 92.7422 13.6289Z" fill="#3D3A34"/>
    <path d="M96.7109 18.0781L96.4805 17.4844H96.4492C96.2487 17.737 96.0417 17.9128 95.8281 18.0117C95.6172 18.1081 95.3411 18.1562 95 18.1562C94.5807 18.1562 94.25 18.0365 94.0078 17.7969C93.7682 17.5573 93.6484 17.2161 93.6484 16.7734C93.6484 16.3099 93.8099 15.9688 94.1328 15.75C94.4583 15.5286 94.9479 15.4062 95.6016 15.3828L96.3594 15.3594V15.168C96.3594 14.7253 96.1328 14.5039 95.6797 14.5039C95.3307 14.5039 94.9206 14.6094 94.4492 14.8203L94.0547 14.0156C94.5573 13.7526 95.1146 13.6211 95.7266 13.6211C96.3125 13.6211 96.7617 13.7487 97.0742 14.0039C97.3867 14.2591 97.543 14.6471 97.543 15.168V18.0781H96.7109ZM96.3594 16.0547L95.8984 16.0703C95.5521 16.0807 95.2943 16.1432 95.125 16.2578C94.9557 16.3724 94.8711 16.5469 94.8711 16.7812C94.8711 17.1172 95.0638 17.2852 95.4492 17.2852C95.7253 17.2852 95.9453 17.2057 96.1094 17.0469C96.276 16.888 96.3594 16.6771 96.3594 16.4141V16.0547Z" fill="#3D3A34"/>
    <path d="M61.1151 32.8785H59.2518L58.2446 29.7059H54.7194L53.8129 32.8785H52L55.4748 22.1016H57.6403L61.1151 32.8785ZM57.9424 28.3462L57.036 25.526C56.9353 25.2239 56.7338 24.5692 56.482 23.5116H56.4317C56.3309 23.9649 56.1295 24.6699 55.9281 25.526L55.0216 28.3462H57.9424Z" fill="#3D3A34"/>
    <path d="M70.0792 28.8999C70.0792 30.2092 69.7267 31.2668 69.0217 32.0222C68.367 32.7272 67.5612 33.0294 66.6548 33.0294C65.6476 33.0294 64.8922 32.6768 64.4389 31.9215H64.3886V36.0006H62.6763V27.6409C62.6763 26.7848 62.6763 25.979 62.626 25.0725H64.1368L64.2375 26.2812H64.2878C64.8418 25.3747 65.7483 24.8711 66.9066 24.8711C67.813 24.8711 68.5684 25.2236 69.2231 25.979C69.7267 26.7344 70.0792 27.6912 70.0792 28.8999ZM68.3166 28.9502C68.3166 28.1948 68.1655 27.5905 67.813 27.0869C67.4605 26.5833 66.9569 26.3315 66.3022 26.3315C65.8994 26.3315 65.4965 26.4826 65.144 26.7344C64.7914 27.0366 64.59 27.3891 64.4389 27.8423C64.3886 28.0438 64.3382 28.2452 64.3382 28.3459V29.6553C64.3382 30.2092 64.4893 30.7128 64.8418 31.0653C65.1943 31.4682 65.6476 31.6697 66.2015 31.6697C66.8562 31.6697 67.3598 31.4179 67.7123 30.9143C68.1152 30.4107 68.3166 29.756 68.3166 28.9502Z" fill="#3D3A34"/>
    <path d="M78.9933 28.8999C78.9933 30.2092 78.6408 31.2668 77.9357 32.0222C77.2811 32.7272 76.5257 33.0294 75.5688 33.0294C74.5616 33.0294 73.8062 32.6768 73.353 31.9215H73.3026V36.0006H71.5904V27.6409C71.5904 26.7848 71.5904 25.979 71.54 25.0725H73.0508L73.1516 26.2812H73.2019C73.7559 25.3747 74.6623 24.8711 75.8206 24.8711C76.7271 24.8711 77.4825 25.2236 78.1372 25.979C78.6911 26.7344 78.9933 27.6912 78.9933 28.8999ZM77.2307 28.9502C77.2307 28.1948 77.0796 27.5905 76.7271 27.0869C76.3746 26.5833 75.871 26.3315 75.2163 26.3315C74.8134 26.3315 74.4105 26.4826 74.058 26.7344C73.7055 27.0366 73.5041 27.3891 73.4034 27.8423C73.353 28.0438 73.3026 28.2452 73.3026 28.3459V29.6553C73.3026 30.2092 73.4537 30.7128 73.8062 31.0653C74.1587 31.4682 74.612 31.6697 75.1659 31.6697C75.8206 31.6697 76.3242 31.4179 76.6767 30.9143C77.0796 30.4107 77.2307 29.756 77.2307 28.9502Z" fill="#3D3A34"/>
    <path d="M89.0142 29.8561C89.0142 30.7626 88.7121 31.518 88.0574 32.1223C87.3524 32.777 86.3955 33.0791 85.1365 33.0791C83.9783 33.0791 83.0214 32.8777 82.3164 32.4245L82.7193 30.964C83.4747 31.4173 84.3308 31.6691 85.2373 31.6691C85.8919 31.6691 86.3955 31.518 86.7481 31.2158C87.1006 30.9137 87.302 30.5108 87.302 30.0576C87.302 29.6043 87.1509 29.2518 86.8488 28.9496C86.5466 28.6475 86.043 28.3957 85.338 28.0935C83.4243 27.3885 82.5178 26.3309 82.5178 25.0216C82.5178 24.1151 82.8704 23.4101 83.525 22.8561C84.1797 22.3022 85.0862 22 86.1437 22C87.1509 22 87.9567 22.1511 88.6114 22.5036L88.1581 23.9137C87.5538 23.5612 86.8488 23.4101 86.0934 23.4101C85.4891 23.4101 84.9855 23.5612 84.6833 23.8633C84.3812 24.1151 84.2301 24.4676 84.2301 24.8201C84.2301 25.223 84.3811 25.5755 84.7337 25.8777C85.0358 26.1295 85.5394 26.4317 86.2948 26.7338C87.2013 27.0863 87.9063 27.5396 88.3596 28.0432C88.8128 28.446 89.0142 29.1007 89.0142 29.8561Z" fill="#3D3A34"/>
    <path d="M94.7549 26.3812H92.8412V30.1582C92.8412 31.115 93.1937 31.6186 93.8484 31.6186C94.1506 31.6186 94.4024 31.5683 94.6038 31.5179L94.6542 32.8273C94.3016 32.9783 93.8484 33.0287 93.2944 33.0287C92.5894 33.0287 92.0858 32.8273 91.6829 32.4244C91.2801 32.0215 91.129 31.3165 91.129 30.3093V26.3812H89.9707V25.0719H91.129V23.6618L92.8412 23.1582V25.0719H94.7549V26.3812Z" fill="#3D3A34"/>
    <path d="M103.366 28.9003C103.366 30.1089 103.014 31.0658 102.359 31.8715C101.654 32.6773 100.697 33.0801 99.4883 33.0801C98.3301 33.0801 97.4236 32.6773 96.7689 31.9219C96.1142 31.1665 95.7617 30.2096 95.7617 29.0514C95.7617 27.8427 96.1142 26.8355 96.8193 26.0801C97.5243 25.3248 98.4811 24.9219 99.6394 24.9219C100.798 24.9219 101.704 25.3248 102.409 26.0801C103.014 26.7852 103.366 27.742 103.366 28.9003ZM101.553 28.9507C101.553 28.2456 101.402 27.6413 101.1 27.0873C100.747 26.483 100.244 26.1305 99.5387 26.1305C98.8337 26.1305 98.3301 26.4327 97.9775 27.0873C97.6754 27.5909 97.5243 28.2456 97.5243 28.9507C97.5243 29.6557 97.6754 30.26 97.9775 30.814C98.3301 31.4183 98.884 31.7204 99.5387 31.7204C100.193 31.7204 100.697 31.4183 101.1 30.7636C101.402 30.3104 101.553 29.706 101.553 28.9507Z" fill="#3D3A34"/>
    <path d="M108.956 26.5822C108.805 26.5319 108.604 26.5319 108.402 26.5319C107.798 26.5319 107.345 26.7837 106.992 27.2369C106.69 27.6398 106.539 28.1434 106.539 28.798V32.8772H104.827V27.5391C104.827 26.6326 104.827 25.8268 104.776 25.0714H106.287L106.338 26.5822H106.388C106.589 26.0786 106.841 25.6757 107.244 25.3736C107.647 25.0714 108.05 24.9707 108.503 24.9707C108.654 24.9707 108.805 24.9707 108.956 25.0211V26.5822Z" fill="#3D3A34"/>
    <path d="M116.712 28.5966C116.712 28.8988 116.712 29.1506 116.661 29.4024H111.474C111.474 30.1578 111.726 30.7621 112.23 31.1649C112.683 31.5175 113.237 31.7189 113.942 31.7189C114.697 31.7189 115.402 31.6182 116.057 31.3664L116.309 32.575C115.554 32.8772 114.697 33.0786 113.69 33.0786C112.482 33.0786 111.525 32.7261 110.87 32.0211C110.165 31.316 109.812 30.3592 109.812 29.1506C109.812 27.9923 110.115 26.9851 110.769 26.2297C111.424 25.3736 112.33 24.9707 113.489 24.9707C114.597 24.9707 115.453 25.3736 116.057 26.2297C116.46 26.834 116.712 27.6398 116.712 28.5966ZM115.05 28.1434C115.05 27.6398 114.949 27.1865 114.697 26.834C114.395 26.3304 113.942 26.129 113.338 26.129C112.784 26.129 112.33 26.3808 111.978 26.834C111.676 27.1865 111.525 27.6398 111.474 28.1937H115.05V28.1434Z" fill="#3D3A34"/>
    <rect x="0.5" y="0.5" width="135.712" height="47" rx="7.5" stroke="#D6D0CC"/>
</svg>
