<svg width="143" height="49" viewBox="0 0 143 49" fill="none" xmlns="http://www.w3.org/2000/svg">
    <path d="M23.2587 13.1208C22.9904 13.3891 22.8115 13.8363 22.8115 14.373V34.2287C22.8115 34.7654 22.9904 35.2126 23.2587 35.4809L23.3482 35.5703L34.4388 24.4797V24.3008V24.2114L23.2587 13.1208Z" fill="url(#paint0_linear_409_52602)"/>
    <path d="M34.4385 24.2107V24.3001V24.3896L38.1055 28.0566L38.195 27.9672L42.5775 25.4629C43.8297 24.7473 43.8297 23.5846 42.5775 22.8691L38.195 20.3648L38.1055 20.4542L34.4385 24.2107Z" fill="url(#paint1_linear_409_52602)"/>
    <path d="M23.2588 35.4806C23.706 35.9278 24.3321 35.9278 25.137 35.5701L38.1953 28.1465L34.4388 24.3006L23.2588 35.4806Z" fill="url(#paint2_linear_409_52602)"/>
    <path d="M23.2588 13.1207L34.4388 24.3008L38.1953 20.5443L25.137 13.1207C24.7793 12.9419 24.4215 12.8524 24.1532 12.8524C23.7954 12.763 23.5271 12.9419 23.2588 13.1207Z" fill="url(#paint3_linear_409_52602)"/>
    <path opacity="0.2" d="M38.1322 27.9967L25.1634 35.3308C24.4479 35.778 23.8218 35.6886 23.3746 35.3308L23.2852 35.4203L23.3746 35.5097C23.8218 35.8675 24.4479 35.9569 25.1634 35.5097L38.1322 27.9967Z" fill="black"/>
    <path opacity="0.12" d="M23.291 35.3168C23.0226 35.0485 22.8438 34.6013 22.8438 34.0646V34.1541C22.8438 34.6907 23.0226 35.1379 23.291 35.4062V35.3168Z" fill="black"/>
    <path opacity="0.12" d="M42.5912 25.4609L38.1191 27.9652L38.2086 28.0547L42.5912 25.5504C43.2172 25.1926 43.4856 24.7454 43.4856 24.2982C43.4856 24.7454 43.1278 25.1032 42.5912 25.4609Z" fill="black"/>
    <path opacity="0.25" d="M25.1491 13.2297L42.5899 23.1576C43.1266 23.5154 43.4843 23.8731 43.4843 24.3203C43.4843 23.8731 43.216 23.4259 42.5899 23.0681L25.1491 13.1403C23.8969 12.4248 22.9131 13.0508 22.9131 14.4819V14.5713C22.9131 13.1403 23.8969 12.5142 25.1491 13.2297Z" fill="#3D3A34"/>
    <path fill-rule="evenodd" clip-rule="evenodd" d="M83.3886 19.9006H83.2108V19.7228V13.7662V13.5884H83.3886H84.1828H84.3606V13.7662V19.7228V19.9006H84.1828H83.3886ZM83.3886 13.4476H83.1348L83.2215 13.2091L83.6186 12.117L83.6612 12H83.7857H84.5799H84.856L84.7418 12.2514L84.2454 13.3434L84.198 13.4476H84.0835H83.3886ZM63.4188 19.8845C63.2911 19.9484 63.1418 19.9761 63.0096 19.9893C62.8766 20.0026 62.7452 20.0026 62.6472 20.0026H62.6472H62.6444C62.2225 20.0026 61.6844 19.8979 61.2471 19.5699C60.8236 19.2522 60.495 18.8199 60.3853 18.2712L60.357 18.1298L60.4896 18.0729L61.1845 17.7751L61.3621 17.699L61.4232 17.8823C61.5108 18.1449 61.6871 18.4132 61.8644 18.5946C62.1336 18.7709 62.3928 18.8528 62.6444 18.8528C62.8961 18.8528 63.1554 18.7708 63.4248 18.5943C63.6264 18.3922 63.7572 18.2461 63.7572 18.0378C63.7572 17.781 63.674 17.548 63.4393 17.3915L63.4246 17.3818L63.4122 17.3693C63.2471 17.2043 62.8874 17.0169 62.411 16.9216L62.395 16.9184L62.3798 16.9123C61.877 16.7112 61.4677 16.5073 61.1559 16.2995L61.1413 16.2897L61.1288 16.2773C60.9652 16.1137 60.8507 15.9444 60.7784 15.7562C60.7063 15.5689 60.6796 15.3722 60.6796 15.1588C60.6796 14.7039 60.9053 14.2638 61.2281 13.9411C61.5631 13.606 62.1066 13.3926 62.6444 13.3926C63.1624 13.3926 63.6158 13.4961 63.9614 13.8418L63.9788 13.8591C64.2618 14.1421 64.4874 14.3676 64.6 14.7055L64.6518 14.8607L64.5014 14.9251L63.8065 15.223L63.6524 15.289L63.5774 15.139C63.4724 14.929 63.3963 14.7904 63.2598 14.7222L63.234 14.7093L63.2136 14.6889C63.148 14.6233 63.0618 14.5851 62.9476 14.5644C62.8298 14.5429 62.6976 14.5424 62.5451 14.5424C62.3428 14.5424 62.203 14.5923 61.9996 14.6649C61.953 14.6815 61.9031 14.6993 61.8484 14.7179C61.6904 14.885 61.6309 15.0314 61.6309 15.1588C61.6309 15.2936 61.6975 15.4496 61.8766 15.6287C62.0361 15.7882 62.2868 15.8789 62.6875 15.9791L62.6877 15.9786L62.7006 15.9829C63.0104 16.0862 63.2182 16.19 63.4175 16.2897L63.4188 16.2904L63.4242 16.293C63.6154 16.3887 63.8283 16.4951 64.0407 16.701C64.2563 16.8167 64.4619 17.026 64.5777 17.3241C64.701 17.4155 64.7544 17.5552 64.7794 17.6803C64.8078 17.8218 64.8077 17.9855 64.8077 18.1271L64.8077 18.1371C64.8077 18.4703 64.698 18.7956 64.5904 19.0108C64.4739 19.2438 64.2475 19.4702 64.0145 19.5867L63.7167 19.7356L63.4188 19.8845ZM52.7119 19.8332H52.8897H54.776C55.6949 19.8332 56.4529 19.6283 56.9973 18.975C57.5178 18.3504 57.8328 17.6159 57.8328 16.6771C57.8328 15.7532 57.6257 15.0065 56.9865 14.3673C56.4496 13.8305 55.6062 13.521 54.6767 13.521H52.8897H52.7119V13.6988V19.6554V19.8332ZM53.8617 18.7827V14.5716H54.776C55.3363 14.5716 55.8824 14.7589 56.2386 15.1151C56.5926 15.4691 56.7822 16.0134 56.7822 16.6771C56.7822 17.3408 56.5926 17.8851 56.2386 18.2391C55.8799 18.5978 55.4314 18.7827 54.776 18.7827H53.8617ZM59.6323 13.7354H58.8381V19.692H59.6323V13.7354ZM65.7015 19.9017H65.5237V19.7239V13.7674V13.5896H65.7015H67.687C68.234 13.5896 68.6665 13.8094 69.077 14.1161C69.343 14.2772 69.5398 14.4715 69.6683 14.7142C69.7974 14.9581 69.8503 15.2371 69.8503 15.5544C69.8503 15.8723 69.7972 16.1265 69.6805 16.3454C69.5642 16.5634 69.3929 16.7309 69.1835 16.8879C68.7708 17.1974 68.3365 17.4198 67.7863 17.4198H66.6735V19.7239V19.9017H66.4957H65.7015ZM66.6735 14.7394V16.3693H67.7863C68.0488 16.3693 68.2971 16.2812 68.4547 16.1236C68.6178 15.9605 68.7005 15.7089 68.7005 15.5544C68.7005 15.4262 68.6793 15.3273 68.6414 15.2419C68.603 15.1556 68.5435 15.0739 68.4547 14.9852C68.2971 14.8275 68.0488 14.7394 67.7863 14.7394H66.6735ZM73.2461 19.991C72.3055 19.991 71.5653 19.6745 70.9363 19.0455C70.3072 18.4164 69.9907 17.6762 69.9907 16.7357C69.9907 15.7951 70.3072 15.055 70.9363 14.4259C71.5653 13.7968 72.3055 13.4803 73.2461 13.4803C74.1866 13.4803 74.9268 13.7968 75.5558 14.4259C76.1849 15.055 76.5014 15.7951 76.5014 16.7357C76.5014 17.6762 76.1849 18.4164 75.5558 19.0455C74.9268 19.6745 74.1866 19.991 73.2461 19.991ZM71.7834 18.2976C72.1535 18.6678 72.7059 18.9405 73.2461 18.9405C73.8044 18.9405 74.3415 18.755 74.6956 18.3123L74.7018 18.3046L74.7087 18.2976C75.0757 17.9307 75.3516 17.3791 75.3516 16.7357C75.3516 16.0735 75.1634 15.5388 74.7234 15.1868L74.708 15.1745L74.6956 15.1591C74.3415 14.7164 73.8044 14.5309 73.2461 14.5309C72.6877 14.5309 72.1506 14.7164 71.7965 15.1591L71.7903 15.1668L71.7834 15.1737C71.4164 15.5407 71.1405 16.0923 71.1405 16.7357C71.1405 17.3791 71.4164 17.9307 71.7834 18.2976ZM77.4118 19.8698H77.234V19.692V13.7354V13.5576H77.4118H78.3053H78.4045L78.4566 13.642L81.0065 17.7746V17.2101V13.7354V13.5576H81.1843H81.9785H82.1563V13.7354V19.692V19.8698H81.9785H81.1843H81.0864L81.034 19.787L78.2845 15.441V16.0187V19.692V19.8698H78.1067H77.4118ZM86.9699 19.8698H86.8438L86.8021 19.7507L84.7173 13.7941L84.6345 13.5576H84.8851H85.7786H85.9076L85.9476 13.6802L87.3721 18.0427L88.8867 13.6771L88.9282 13.5576H89.0547H89.9482H90.2028L90.1151 13.7966L87.9311 19.7532L87.8883 19.8698H87.7641H86.9699ZM90.8002 19.9068H90.6224V19.729V13.7724V13.5946H90.8002H94.2749H94.4527V13.7724V14.4674V14.6452H94.2749H91.7722V16.1758H94.0763H94.2541V16.3536V17.0485V17.2263H94.0763H91.7722V18.757H94.2749H94.4527V18.9348V19.729V19.9068H94.2749H90.8002ZM95.4732 19.8698H95.2954V19.692V13.7354V13.5576H95.4732H96.2674H96.4452V13.7354V18.8192H98.8486H99.0264V18.997V19.692V19.8698H98.8486H95.4732ZM101.779 19.8698H101.601V19.692V13.7354V13.5576H101.779H102.672H102.772L102.824 13.642L105.374 17.7746V17.2101V13.7354V13.5576H105.551H106.346H106.523V13.7354V19.692V19.8698H106.346H105.551H105.453L105.401 19.787L102.652 15.441V16.0187V19.692V19.8698H102.474H101.779ZM110.391 19.991C109.451 19.991 108.71 19.6745 108.081 19.0455C107.452 18.4164 107.136 17.6762 107.136 16.7357C107.136 15.7951 107.452 15.055 108.081 14.4259C108.71 13.7968 109.451 13.4803 110.391 13.4803C111.332 13.4803 112.072 13.7968 112.701 14.4259C113.33 15.055 113.646 15.7951 113.646 16.7357C113.646 17.6762 113.33 18.4164 112.701 19.0455C112.072 19.6745 111.332 19.991 110.391 19.991ZM108.928 18.2976C109.299 18.6678 109.851 18.9405 110.391 18.9405C110.949 18.9405 111.487 18.755 111.841 18.3123C112.228 17.8277 112.497 17.3707 112.497 16.7357C112.497 16.0735 112.308 15.5388 111.868 15.1868L111.853 15.1745L111.841 15.1591C111.487 14.7164 110.949 14.5309 110.391 14.5309C109.833 14.5309 109.296 14.7164 108.942 15.1591L108.935 15.1668L108.928 15.1737C108.561 15.5407 108.286 16.0923 108.286 16.7357C108.286 17.3791 108.561 17.9307 108.928 18.2976Z" fill="#3D3A34"/>
    <path d="M107.221 32.6883H108.795V22.3333H107.221V32.6883ZM121.138 26.0611L119.398 30.5345H119.315L117.493 26.0611H115.836L118.57 32.357L116.996 35.8363H118.57L122.795 26.0611H121.138ZM112.44 31.5286C111.943 31.5286 111.197 31.2801 111.197 30.6173C111.197 29.7889 112.108 29.5404 112.854 29.5404C113.517 29.5404 113.848 29.7061 114.262 29.8718C114.097 30.8659 113.268 31.5286 112.44 31.5286ZM112.605 25.8126C111.446 25.8126 110.286 26.3096 109.872 27.3866L111.28 27.9665C111.611 27.3866 112.108 27.2209 112.688 27.2209C113.517 27.2209 114.262 27.7179 114.345 28.5463V28.6292C114.097 28.4635 113.434 28.215 112.771 28.215C111.28 28.215 109.789 29.0434 109.789 30.5345C109.789 31.9428 111.031 32.854 112.357 32.854C113.434 32.854 113.931 32.357 114.345 31.8599H114.428V32.6883H115.919V28.712C115.753 26.8895 114.345 25.8126 112.605 25.8126ZM103.079 27.3037H100.842V23.7416H103.079C104.239 23.7416 104.901 24.7357 104.901 25.4812C104.818 26.3925 104.156 27.3037 103.079 27.3037ZM102.996 22.3333H99.2681V32.6883H100.842V28.7949H102.996C104.736 28.7949 106.392 27.5523 106.392 25.5641C106.392 23.5759 104.736 22.3333 102.996 22.3333ZM82.7829 31.5286C81.706 31.5286 80.7948 30.6173 80.7948 29.3747C80.7948 28.1321 81.706 27.2209 82.7829 27.2209C83.8598 27.2209 84.6882 28.1321 84.6882 29.3747C84.6882 30.6173 83.8598 31.5286 82.7829 31.5286ZM84.6054 26.641C84.1912 26.2268 83.5285 25.8126 82.7001 25.8126C80.9604 25.8126 79.3036 27.3866 79.3036 29.3747C79.3036 31.3629 80.8776 32.854 82.7001 32.854C83.5285 32.854 84.1912 32.4398 84.5226 32.0256H84.6054V32.5227C84.6054 33.8481 83.8598 34.5937 82.7001 34.5937C81.7888 34.5937 81.1261 33.9309 80.9604 33.3511L79.635 33.9309C80.0492 34.8422 81.0433 36.002 82.7829 36.002C84.6054 36.002 86.0965 34.925 86.0965 32.357V26.0611H84.6054V26.641ZM87.0906 32.6883H88.6646V22.3333H87.0906V32.6883ZM90.9841 29.2919C90.9841 27.9665 92.061 27.2209 92.8066 27.2209C93.3865 27.2209 93.9663 27.5522 94.132 27.9665L90.9841 29.2919ZM95.7888 28.1321C95.4575 27.3037 94.6291 25.8954 92.8066 25.8954C90.9841 25.8954 89.493 27.3037 89.493 29.4576C89.493 31.4457 90.9841 33.0197 92.9723 33.0197C94.5462 33.0197 95.5403 32.0256 95.8717 31.4457L94.7119 30.6173C94.2977 31.1972 93.8007 31.6114 92.9723 31.6114C92.2267 31.6114 91.6468 31.2801 91.2326 30.5345L95.9545 28.5463L95.7888 28.1321ZM58.1794 26.9724V28.4635H61.7415C61.6587 29.2919 61.3273 29.9546 60.9131 30.3688C60.4161 30.8659 59.5877 31.4457 58.1794 31.4457C55.9427 31.4457 54.2859 29.7061 54.2859 27.4694C54.2859 25.2327 56.0255 23.4931 58.1794 23.4931C59.3391 23.4931 60.2504 23.9901 60.9131 24.57L61.99 23.4931C61.0788 22.6647 59.919 22.002 58.2622 22.002C55.28 22.002 52.7119 24.4872 52.7119 27.4694C52.7119 30.4517 55.28 32.9369 58.2622 32.9369C59.919 32.9369 61.0788 32.4398 62.0729 31.3629C63.0669 30.3688 63.3983 28.9605 63.3983 27.8836C63.3983 27.5523 63.3983 27.2209 63.3155 26.9724H58.1794ZM67.3746 31.5286C66.2977 31.5286 65.3865 30.6173 65.3865 29.3747C65.3865 28.1321 66.2977 27.2209 67.3746 27.2209C68.4516 27.2209 69.3628 28.0493 69.3628 29.3747C69.3628 30.6173 68.4516 31.5286 67.3746 31.5286ZM67.3746 25.8954C65.3865 25.8954 63.8125 27.3866 63.8125 29.4576C63.8125 31.4457 65.3865 33.0197 67.3746 33.0197C69.3628 33.0197 70.9368 31.5286 70.9368 29.4576C70.9368 27.3037 69.3628 25.8954 67.3746 25.8954ZM75.0788 31.5286C74.0019 31.5286 73.0906 30.6173 73.0906 29.3747C73.0906 28.1321 74.0019 27.2209 75.0788 27.2209C76.1557 27.2209 77.0669 28.0493 77.0669 29.3747C77.0669 30.6173 76.1557 31.5286 75.0788 31.5286ZM75.0788 25.8954C73.0906 25.8954 71.5166 27.3866 71.5166 29.4576C71.5166 31.4457 73.0906 33.0197 75.0788 33.0197C77.0669 33.0197 78.6409 31.5286 78.6409 29.4576C78.6409 27.3037 77.0669 25.8954 75.0788 25.8954Z" fill="#3D3A34"/>
    <rect x="1.21191" y="0.5" width="141.083" height="47.0026" rx="7.5" stroke="#D6D0CC"/>
    <defs>
        <linearGradient id="paint0_linear_409_52602" x1="33.4542" y1="14.2199" x2="13.4406" y2="34.2335" gradientUnits="userSpaceOnUse">
            <stop stop-color="#00A0FF"/>
            <stop offset="0.00657445" stop-color="#00A1FF"/>
            <stop offset="0.2601" stop-color="#00BEFF"/>
            <stop offset="0.5122" stop-color="#00D2FF"/>
            <stop offset="0.7604" stop-color="#00DFFF"/>
            <stop offset="1" stop-color="#00E3FF"/>
        </linearGradient>
        <linearGradient id="paint1_linear_409_52602" x1="44.2092" y1="24.3068" x2="15.3535" y2="24.3068" gradientUnits="userSpaceOnUse">
            <stop stop-color="#FFE000"/>
            <stop offset="0.4087" stop-color="#FFBD00"/>
            <stop offset="0.7754" stop-color="#FFA500"/>
            <stop offset="1" stop-color="#FF9C00"/>
        </linearGradient>
        <linearGradient id="paint2_linear_409_52602" x1="36.1614" y1="26.3397" x2="9.02128" y2="53.4798" gradientUnits="userSpaceOnUse">
            <stop stop-color="#FF3A44"/>
            <stop offset="1" stop-color="#C31162"/>
        </linearGradient>
        <linearGradient id="paint3_linear_409_52602" x1="20.4967" y1="6.5713" x2="32.6158" y2="18.6905" gradientUnits="userSpaceOnUse">
            <stop stop-color="#32A071"/>
            <stop offset="0.0685" stop-color="#2DA771"/>
            <stop offset="0.4762" stop-color="#15CF74"/>
            <stop offset="0.8009" stop-color="#06E775"/>
            <stop offset="1" stop-color="#00F076"/>
        </linearGradient>
    </defs>
</svg>
