<svg width="80" height="30" viewBox="0 0 80 30" fill="none" xmlns="http://www.w3.org/2000/svg">
    <g clip-path="url(#clip0_409_52581)">
        <g clip-path="url(#clip1_409_52581)">
            <path d="M2.24744 4.45329C3.51901 4.45329 4.49487 3.49764 4.49487 2.226C4.49487 0.954369 3.51773 0 2.24744 0C0.977146 0 0 0.955653 0 2.22729C0 3.49892 0.974575 4.45458 2.24744 4.45458V4.45329Z" fill="#EC7000"/>
            <path d="M4.13075 18.4647V6.19531H3.6846C1.60174 6.19531 0.362305 7.42199 0.362305 9.4823V18.4621H4.13203L4.13075 18.4647Z" fill="#EC7000"/>
            <path d="M12.8159 18.772C14.792 18.772 16.3992 18.1555 17.8327 17.0688L16.2513 14.3046C15.2124 15.0702 14.0759 15.4401 13.0151 15.4401C11.1624 15.4401 9.80213 14.3534 9.80213 12.306C9.80213 10.3805 11.0866 9.26944 12.965 9.26944C14.027 9.26944 15.0402 9.66378 15.98 10.2816L17.6592 7.41851C16.2012 6.45515 14.5953 5.9375 12.767 5.9375C8.7877 5.9375 5.99512 8.50518 5.99512 12.3548C5.99512 16.2044 8.8867 18.7733 12.8159 18.7733" fill="#EC7000"/>
            <path d="M38.0791 18.5249V10.2451C38.0791 9.90987 38.3517 9.63885 38.686 9.63885H42.7977V6.18359H37.633C35.5566 6.18359 34.3223 7.41798 34.3223 9.49113V18.5262H38.0791V18.5249Z" fill="#EC7000"/>
            <path d="M48.3975 18.5249V10.2451C48.3975 9.90987 48.6701 9.63885 49.0044 9.63885H53.1161V6.18359H47.9514C45.8762 6.18359 44.6406 7.41798 44.6406 9.49113V18.5262H48.3975V18.5249Z" fill="#EC7000"/>
            <path d="M74.3416 18.772C77.9249 18.772 80 17.1433 80 14.7233C80 9.81144 73.1549 11.2924 73.1549 9.53913C73.1549 8.92258 73.7232 8.69908 74.7119 8.69908C75.8986 8.69908 77.2319 9.09342 78.3196 9.71125L79.604 7.11917C78.2206 6.37802 76.5646 5.93359 74.663 5.93359C71.9694 5.93359 69.3504 7.24248 69.3504 9.90906C69.3504 14.8209 76.1956 13.2166 76.1956 15.0688C76.1956 15.8344 75.3046 16.0078 74.294 16.0078C72.9594 16.0078 71.5014 15.5145 70.3404 14.7246L69.0059 17.3167C70.5629 18.2299 72.4644 18.7733 74.3442 18.7733H74.3429L74.3416 18.772Z" fill="#EC7000"/>
            <path d="M60.9987 5.93555C57.1441 5.93555 54.3516 8.50322 54.3516 12.3528C54.3516 16.2024 57.1441 18.7714 60.9987 18.7714C64.8533 18.7714 67.6459 16.2037 67.6459 12.3528C67.6459 8.50194 64.8533 5.93555 60.9987 5.93555ZM60.9987 15.6115C59.3929 15.6115 58.1573 14.4016 58.1573 12.304C58.1573 10.3298 59.3183 9.09408 60.9987 9.09408C62.6792 9.09408 63.8402 10.3041 63.8402 12.4016C63.8402 14.3759 62.6779 15.6115 60.9987 15.6115Z" fill="#EC7000"/>
            <path d="M28.2591 6.18217V7.98429H28.2103C27.6677 6.84881 26.3575 5.93555 24.4778 5.93555C21.5129 5.93555 18.7705 8.23091 18.7705 12.3528C18.7705 16.4747 21.4641 18.7714 24.3801 18.7714C26.2328 18.7726 27.6163 17.8594 28.2115 16.7239H28.2604V18.526H31.9671V6.18217H28.2604H28.2591ZM25.419 15.6128C23.8131 15.6128 22.5775 14.4028 22.5775 12.3053C22.5775 10.331 23.7398 9.09537 25.419 9.09537C27.0981 9.09537 28.2604 10.3053 28.2604 12.4029C28.2604 14.3772 27.0994 15.6128 25.419 15.6128Z" fill="#EC7000"/>
            <path d="M77.1904 29.0875C76.6299 29.0875 76.1837 28.8936 75.8494 28.5044C75.5152 28.1152 75.3506 27.5963 75.3506 26.945V23.5013H76.6543V26.7357C76.6543 27.1505 76.7405 27.4665 76.9127 27.6862C77.0837 27.9071 77.3293 28.0176 77.6443 28.0176C77.9593 28.0176 78.2139 27.9007 78.4067 27.672C78.5996 27.4408 78.696 27.1326 78.696 26.7485V23.5039H79.9997V28.954H78.8645L78.7912 28.313C78.6163 28.5648 78.39 28.7574 78.1136 28.8897C77.8359 29.022 77.5299 29.0888 77.193 29.0888M78.1393 22.7666H76.9937L78.1187 21.1289H79.5395L78.1419 22.7666H78.1406H78.1393Z" fill="#EC7000"/>
            <path d="M71.5986 29.0869C71.0663 29.0869 70.6395 28.9418 70.3155 28.6566C69.9927 28.3702 69.832 27.9848 69.832 27.5019C69.832 26.8866 70.0763 26.4075 70.5675 26.0684C71.0586 25.7306 71.7568 25.5585 72.6593 25.5585H72.8908C72.9679 25.5585 73.0412 25.561 73.1119 25.5687C73.0913 25.177 72.9795 24.8867 72.775 24.6966C72.5719 24.5078 72.2659 24.414 71.8609 24.414C71.3427 24.414 70.8246 24.5604 70.3052 24.8546V23.8039C70.8735 23.5097 71.4572 23.3633 72.0602 23.3633C72.7956 23.3633 73.3639 23.5662 73.7625 23.967C74.161 24.369 74.3616 24.9445 74.3616 25.6946V28.9508H73.2803L73.207 28.3214C73.0399 28.5603 72.8136 28.7465 72.5295 28.8827C72.2466 29.0201 71.9355 29.0869 71.5986 29.0869ZM71.956 28.1634C72.2787 28.1634 72.5526 28.0491 72.7815 27.8179C73.0078 27.5867 73.1235 27.3066 73.1235 26.9778V26.4435C73.0528 26.4435 72.982 26.4435 72.9088 26.437C72.8355 26.4345 72.7596 26.4306 72.6838 26.4306C72.1643 26.4306 71.7657 26.5103 71.4906 26.6683C71.2129 26.8262 71.074 27.0562 71.074 27.3554C71.074 27.5995 71.155 27.796 71.317 27.9437C71.4777 28.0902 71.6925 28.1647 71.9586 28.1647" fill="#EC7000"/>
            <path d="M68.3921 29.0567C67.8032 29.0567 67.3583 28.9 67.0575 28.5892C66.7566 28.277 66.6049 27.8146 66.6049 27.1968V24.5084H65.7422V23.5001H66.6049V21.9844H67.9086V23.5001H69.1275V24.5084H67.9086V27.0812C67.9086 27.3972 67.9716 27.6297 68.0976 27.7799C68.2223 27.9302 68.4203 28.0047 68.6865 28.0047C68.8896 28.0047 69.0851 27.9623 69.2753 27.8776V28.8949C68.9873 28.9989 68.6929 29.0529 68.3921 29.0529" fill="#EC7000"/>
            <path d="M64.9365 21.9824H63.5273V28.8827H64.9365V21.9824Z" fill="#EC7000"/>
        </g>
    </g>
    <defs>
        <clipPath id="clip0_409_52581">
            <rect width="80" height="30" fill="white"/>
        </clipPath>
        <clipPath id="clip1_409_52581">
            <rect width="80" height="29.0909" fill="white"/>
        </clipPath>
    </defs>
</svg>
