<svg width="700" height="292" viewBox="0 0 700 292" fill="none" xmlns="http://www.w3.org/2000/svg">
<g clip-path="url(#clip0_304_100)">
<path d="M84.8509 45.7014L123.267 0H169.696V169.696H109.608V104.876L84.666 134.192L60.082 105.061V169.702H0V0H46.4294L84.8509 45.7014ZM34.5909 24.9422H25.4853V147.851H34.5909V39.1495L84.8452 98.1454L135.099 39.1495V147.851H144.205V24.9422H135.099L84.8452 84.666L34.5909 24.9422Z" fill="#EC7000"/>
<path d="M203.565 0H239.254L266.929 169.696H224.139L219.95 139.473H201.739L197.186 169.696H175.884L203.565 0ZM205.206 116.53H216.674L211.214 76.8373L205.206 116.53Z" fill="#EC7000"/>
<path d="M273.255 169.696V0H322.14L363.965 53.8306V0H424.052V169.696H375.306L333.343 112.185V169.696H273.255ZM307.938 148.007V38.4215L389.508 148.007H398.613V24.9422H389.508V134.533L307.938 24.9422H298.833V148.007H307.938Z" fill="#EC7000"/>
<path d="M517.917 0V124.544C517.917 131.829 517.096 138.41 515.455 144.297C513.814 150.185 511.295 155.252 507.898 159.499C504.501 163.751 500.162 167.027 494.881 169.332C489.6 171.637 483.32 172.793 476.034 172.793C468.749 172.793 462.474 171.637 457.187 169.332C451.907 167.027 447.568 163.751 444.17 159.499C440.767 155.252 438.248 150.185 436.613 144.297C434.972 138.41 434.152 131.823 434.152 124.544V0H460.735V124.723C460.735 130.552 461.948 135.221 464.375 138.745C466.801 142.269 470.684 144.026 476.028 144.026C481.373 144.026 485.255 142.269 487.682 138.745C490.109 135.227 491.322 130.552 491.322 124.723V0H517.905H517.917Z" fill="#EC7000"/>
<path d="M549.237 0H584.926L612.601 169.696H569.812L565.623 139.473H547.412L542.859 169.696H521.557L549.237 0ZM550.878 116.53H562.347L556.887 76.8373L550.878 116.53Z" fill="#EC7000"/>
<path d="M616.241 0H658.118V130.003H700V169.696H616.241V0Z" fill="#EC7000"/>
<path d="M345.262 226.479C351.063 226.479 355.512 222.117 355.512 216.31C355.512 210.504 351.063 206.142 345.262 206.142C339.461 206.142 335.013 210.504 335.013 216.31C335.013 222.117 339.456 226.479 345.262 226.479Z" fill="#EC7000"/>
<path d="M353.859 290.461V234.435H351.82C342.316 234.435 336.659 240.034 336.659 249.445V290.455H353.854L353.859 290.461Z" fill="#EC7000"/>
<path d="M393.483 291.865C402.502 291.865 409.828 289.046 416.368 284.088L409.152 271.464C404.414 274.96 399.232 276.647 394.384 276.647C385.931 276.647 379.726 271.684 379.726 262.33C379.726 253.536 385.585 248.463 394.159 248.463C399 248.463 403.628 250.266 407.915 253.085L415.577 240.01C408.927 235.614 401.595 233.245 393.257 233.245C375.104 233.245 362.364 244.968 362.364 262.555C362.364 280.142 375.555 291.865 393.483 291.865Z" fill="#EC7000"/>
<path d="M508.742 290.738V252.929C508.742 251.398 509.984 250.156 511.515 250.156H530.275V234.377H506.714C497.244 234.377 491.605 240.016 491.605 249.486V290.75H508.742V290.738Z" fill="#EC7000"/>
<path d="M555.818 290.738V252.929C555.818 251.398 557.06 250.156 558.591 250.156H577.351V234.377H553.79C544.321 234.377 538.681 240.016 538.681 249.486V290.75H555.818V290.738Z" fill="#EC7000"/>
<path d="M674.185 291.865C690.53 291.865 700 284.423 700 273.376C700 250.942 668.772 257.707 668.772 249.705C668.772 246.886 671.366 245.869 675.878 245.869C681.292 245.869 687.376 247.672 692.333 250.491L698.192 238.653C691.882 235.273 684.325 233.239 675.647 233.239C663.358 233.239 651.41 239.213 651.41 251.392C651.41 273.827 682.638 266.501 682.638 274.954C682.638 278.449 678.576 279.241 673.96 279.241C667.87 279.241 661.22 276.988 655.922 273.382L649.832 285.221C656.939 289.386 665.611 291.871 674.185 291.871H674.18L674.185 291.865Z" fill="#EC7000"/>
<path d="M613.306 233.251C595.719 233.251 582.979 244.973 582.979 262.561C582.979 280.148 595.719 291.871 613.306 291.871C630.893 291.871 643.633 280.148 643.633 262.561C643.633 244.973 630.893 233.251 613.306 233.251ZM613.306 277.438C605.98 277.438 600.341 271.915 600.341 262.33C600.341 253.311 605.639 247.672 613.306 247.672C620.973 247.672 626.271 253.195 626.271 262.78C626.271 271.799 620.967 277.438 613.306 277.438Z" fill="#EC7000"/>
<path d="M463.936 234.377V242.61H463.71C461.232 237.428 455.258 233.251 446.684 233.251C433.158 233.251 420.644 243.731 420.644 262.561C420.644 281.39 432.933 291.871 446.233 291.871C454.686 291.877 461.001 287.711 463.71 282.517H463.936V290.75H480.847V234.383H463.936V234.377ZM450.976 277.444C443.65 277.444 438.011 271.92 438.011 262.335C438.011 253.316 443.315 247.677 450.976 247.677C458.638 247.677 463.942 253.201 463.942 262.786C463.942 271.805 458.643 277.444 450.976 277.444Z" fill="#EC7000"/>
</g>
<defs>
<clipPath id="clip0_304_100">
<rect width="700" height="291.871" fill="white"/>
</clipPath>
</defs>
</svg>
